<svg width="80" height="80" viewBox="0 0 80 80" fill="none" xmlns="http://www.w3.org/2000/svg">
<path d="M74.8594 56.4531H42.7344V23.5469H74.8594C75.2969 23.5469 75.6406 23.8906 75.6406 24.3281V55.6719C75.6406 56.1094 75.2969 56.4531 74.8594 56.4531Z" fill="#F6F7FE"/>
<path d="M32.2969 1.875H58.1719C58.8125 1.875 59.1875 2.60938 58.7969 3.125L31.5625 39.5312C31.3594 39.8125 31.3594 40.1875 31.5625 40.4688L58.8125 76.875C59.2031 77.3906 58.8281 78.125 58.1875 78.125H32.2969C32.0469 78.125 31.8125 78.0156 31.6719 77.8125L3.73437 40.4688C3.53125 40.1875 3.53125 39.8125 3.73437 39.5312L31.6719 2.1875C31.8281 1.98438 32.0625 1.875 32.2969 1.875Z" fill="#F6F7FE"/>
</svg>
